<svg xmlns="http://www.w3.org/2000/svg" xmlns:xlink="http://www.w3.org/1999/xlink" width="125" zoomAndPan="magnify" viewBox="0 0 93.75 30.000001" height="40" preserveAspectRatio="xMidYMid meet" version="1.0"><defs><g/></defs><path stroke-linecap="butt" transform="matrix(0.00145161, 0, 0, 0.00145161, -0.573993, -3.71522)" fill-opacity="1" fill="#c9bfe6" fill-rule="evenodd" stroke-linejoin="miter" d="M 12477.88388 7822.914778 C 13110.262398 7822.914778 13723.804109 7917.098798 14299.672206 8092.011977 C 14340.036793 6254.07811 15766.252174 4809.026154 17671.460645 4779.425462 C 19727.363571 4747.133798 21557.224815 6377.862822 21761.738718 8423.001531 C 21963.56165 10465.449269 20467.380986 12147.30676 18416.860004 12187.67134 C 18599.846129 12774.303233 18699.412108 13398.608734 18699.412108 14044.442011 C 18699.412108 17480.813237 15914.255657 20268.660215 12477.88388 20268.660215 C 9038.821131 20268.660215 6253.66468 17480.813237 6253.66468 14044.442011 C 6253.66468 13409.372622 6347.848715 12798.521981 6525.452894 12222.653976 C 4687.518733 12182.289396 3239.775573 10753.383271 3210.174876 8850.866077 C 3177.883207 6794.963479 4811.303465 4965.102529 6856.442501 4760.588658 C 8898.890566 4558.765759 10580.748326 6054.946183 10618.42194 8102.775865 C 11205.053927 7919.78977 11829.359528 7822.914778 12477.88388 7822.914778 Z M 12477.88388 7822.914778 " stroke="#c9bfe6" stroke-width="20" stroke-opacity="1" stroke-miterlimit="22.926001"/><g fill="#c9bfe6" fill-opacity="1"><g transform="translate(32.383063, 10.887099)"><g><path d="M 2.15625 -5.015625 L 2.15625 -3.390625 L 5 -3.390625 L 5 -2.25 L 2.15625 -2.25 L 2.15625 0 L 0.734375 0 L 0.734375 -6.15625 L 5.390625 -6.15625 L 5.390625 -5.015625 Z M 2.15625 -5.015625 "/></g></g></g><g fill="#c9bfe6" fill-opacity="1"><g transform="translate(38.006523, 10.887099)"><g><path d="M 2.546875 -4.796875 C 3.273438 -4.796875 3.835938 -4.617188 4.234375 -4.265625 C 4.628906 -3.921875 4.828125 -3.398438 4.828125 -2.703125 L 4.828125 0 L 3.53125 0 L 3.53125 -0.59375 C 3.28125 -0.144531 2.800781 0.078125 2.09375 0.078125 C 1.726562 0.078125 1.410156 0.015625 1.140625 -0.109375 C 0.878906 -0.234375 0.675781 -0.40625 0.53125 -0.625 C 0.394531 -0.84375 0.328125 -1.085938 0.328125 -1.359375 C 0.328125 -1.796875 0.488281 -2.140625 0.8125 -2.390625 C 1.144531 -2.648438 1.660156 -2.78125 2.359375 -2.78125 L 3.453125 -2.78125 C 3.453125 -3.082031 3.359375 -3.3125 3.171875 -3.46875 C 2.992188 -3.632812 2.722656 -3.71875 2.359375 -3.71875 C 2.109375 -3.71875 1.859375 -3.675781 1.609375 -3.59375 C 1.367188 -3.507812 1.164062 -3.398438 1 -3.265625 L 0.5 -4.234375 C 0.757812 -4.410156 1.066406 -4.546875 1.421875 -4.640625 C 1.785156 -4.742188 2.160156 -4.796875 2.546875 -4.796875 Z M 2.4375 -0.859375 C 2.664062 -0.859375 2.867188 -0.910156 3.046875 -1.015625 C 3.234375 -1.117188 3.367188 -1.28125 3.453125 -1.5 L 3.453125 -1.984375 L 2.5 -1.984375 C 1.9375 -1.984375 1.65625 -1.796875 1.65625 -1.421875 C 1.65625 -1.242188 1.722656 -1.101562 1.859375 -1 C 2.003906 -0.90625 2.195312 -0.859375 2.4375 -0.859375 Z M 2.4375 -0.859375 "/></g></g></g><g fill="#c9bfe6" fill-opacity="1"><g transform="translate(43.436383, 10.887099)"><g><path d="M 0.640625 -4.734375 L 2 -4.734375 L 2 0 L 0.640625 0 Z M 1.3125 -5.390625 C 1.0625 -5.390625 0.851562 -5.460938 0.6875 -5.609375 C 0.53125 -5.753906 0.453125 -5.9375 0.453125 -6.15625 C 0.453125 -6.375 0.53125 -6.554688 0.6875 -6.703125 C 0.851562 -6.847656 1.0625 -6.921875 1.3125 -6.921875 C 1.5625 -6.921875 1.765625 -6.847656 1.921875 -6.703125 C 2.085938 -6.566406 2.171875 -6.394531 2.171875 -6.1875 C 2.171875 -5.957031 2.085938 -5.765625 1.921875 -5.609375 C 1.765625 -5.460938 1.5625 -5.390625 1.3125 -5.390625 Z M 1.3125 -5.390625 "/></g></g></g><g fill="#c9bfe6" fill-opacity="1"><g transform="translate(46.085306, 10.887099)"><g><path d="M 3.6875 -0.234375 C 3.550781 -0.128906 3.382812 -0.0507812 3.1875 0 C 2.988281 0.0507812 2.78125 0.078125 2.5625 0.078125 C 2 0.078125 1.5625 -0.0664062 1.25 -0.359375 C 0.945312 -0.648438 0.796875 -1.070312 0.796875 -1.625 L 0.796875 -3.578125 L 0.078125 -3.578125 L 0.078125 -4.625 L 0.796875 -4.625 L 0.796875 -5.78125 L 2.171875 -5.78125 L 2.171875 -4.625 L 3.359375 -4.625 L 3.359375 -3.578125 L 2.171875 -3.578125 L 2.171875 -1.640625 C 2.171875 -1.441406 2.222656 -1.285156 2.328125 -1.171875 C 2.429688 -1.066406 2.578125 -1.015625 2.765625 -1.015625 C 2.984375 -1.015625 3.164062 -1.078125 3.3125 -1.203125 Z M 3.6875 -0.234375 "/></g></g></g><g fill="#c9bfe6" fill-opacity="1"><g transform="translate(49.913488, 10.887099)"><g><path d="M 3.515625 -4.796875 C 4.097656 -4.796875 4.566406 -4.617188 4.921875 -4.265625 C 5.285156 -3.921875 5.46875 -3.398438 5.46875 -2.703125 L 5.46875 0 L 4.09375 0 L 4.09375 -2.5 C 4.09375 -2.875 4.007812 -3.148438 3.84375 -3.328125 C 3.6875 -3.515625 3.453125 -3.609375 3.140625 -3.609375 C 2.796875 -3.609375 2.519531 -3.5 2.3125 -3.28125 C 2.101562 -3.070312 2 -2.757812 2 -2.34375 L 2 0 L 0.640625 0 L 0.640625 -6.53125 L 2 -6.53125 L 2 -4.234375 C 2.1875 -4.421875 2.40625 -4.5625 2.65625 -4.65625 C 2.914062 -4.75 3.203125 -4.796875 3.515625 -4.796875 Z M 3.515625 -4.796875 "/></g></g></g><g fill="#c9bfe6" fill-opacity="1"><g transform="translate(55.994575, 10.887099)"><g/></g></g><g fill="#c9bfe6" fill-opacity="1"><g transform="translate(58.485094, 10.887099)"><g><path d="M 6.328125 0 L 6.328125 -3.6875 L 4.515625 -0.65625 L 3.875 -0.65625 L 2.0625 -3.609375 L 2.0625 0 L 0.734375 0 L 0.734375 -6.15625 L 1.90625 -6.15625 L 4.21875 -2.328125 L 6.484375 -6.15625 L 7.65625 -6.15625 L 7.671875 0 Z M 6.328125 0 "/></g></g></g><g fill="#c9bfe6" fill-opacity="1"><g transform="translate(66.889491, 10.887099)"><g><path d="M 5.265625 -2.34375 C 5.265625 -2.332031 5.257812 -2.210938 5.25 -1.984375 L 1.65625 -1.984375 C 1.726562 -1.691406 1.882812 -1.457031 2.125 -1.28125 C 2.363281 -1.113281 2.660156 -1.03125 3.015625 -1.03125 C 3.265625 -1.03125 3.484375 -1.066406 3.671875 -1.140625 C 3.859375 -1.210938 4.035156 -1.328125 4.203125 -1.484375 L 4.9375 -0.6875 C 4.488281 -0.175781 3.835938 0.078125 2.984375 0.078125 C 2.453125 0.078125 1.976562 -0.0234375 1.5625 -0.234375 C 1.15625 -0.441406 0.835938 -0.726562 0.609375 -1.09375 C 0.390625 -1.46875 0.28125 -1.890625 0.28125 -2.359375 C 0.28125 -2.828125 0.390625 -3.242188 0.609375 -3.609375 C 0.828125 -3.984375 1.128906 -4.273438 1.515625 -4.484375 C 1.898438 -4.691406 2.332031 -4.796875 2.8125 -4.796875 C 3.269531 -4.796875 3.6875 -4.695312 4.0625 -4.5 C 4.4375 -4.300781 4.726562 -4.015625 4.9375 -3.640625 C 5.15625 -3.273438 5.265625 -2.84375 5.265625 -2.34375 Z M 2.8125 -3.765625 C 2.5 -3.765625 2.238281 -3.675781 2.03125 -3.5 C 1.820312 -3.320312 1.691406 -3.082031 1.640625 -2.78125 L 3.96875 -2.78125 C 3.925781 -3.082031 3.796875 -3.320312 3.578125 -3.5 C 3.367188 -3.675781 3.113281 -3.765625 2.8125 -3.765625 Z M 2.8125 -3.765625 "/></g></g></g><g fill="#c9bfe6" fill-opacity="1"><g transform="translate(72.442548, 10.887099)"><g><path d="M 5.265625 -2.34375 C 5.265625 -2.332031 5.257812 -2.210938 5.25 -1.984375 L 1.65625 -1.984375 C 1.726562 -1.691406 1.882812 -1.457031 2.125 -1.28125 C 2.363281 -1.113281 2.660156 -1.03125 3.015625 -1.03125 C 3.265625 -1.03125 3.484375 -1.066406 3.671875 -1.140625 C 3.859375 -1.210938 4.035156 -1.328125 4.203125 -1.484375 L 4.9375 -0.6875 C 4.488281 -0.175781 3.835938 0.078125 2.984375 0.078125 C 2.453125 0.078125 1.976562 -0.0234375 1.5625 -0.234375 C 1.15625 -0.441406 0.835938 -0.726562 0.609375 -1.09375 C 0.390625 -1.46875 0.28125 -1.890625 0.28125 -2.359375 C 0.28125 -2.828125 0.390625 -3.242188 0.609375 -3.609375 C 0.828125 -3.984375 1.128906 -4.273438 1.515625 -4.484375 C 1.898438 -4.691406 2.332031 -4.796875 2.8125 -4.796875 C 3.269531 -4.796875 3.6875 -4.695312 4.0625 -4.5 C 4.4375 -4.300781 4.726562 -4.015625 4.9375 -3.640625 C 5.15625 -3.273438 5.265625 -2.84375 5.265625 -2.34375 Z M 2.8125 -3.765625 C 2.5 -3.765625 2.238281 -3.675781 2.03125 -3.5 C 1.820312 -3.320312 1.691406 -3.082031 1.640625 -2.78125 L 3.96875 -2.78125 C 3.925781 -3.082031 3.796875 -3.320312 3.578125 -3.5 C 3.367188 -3.675781 3.113281 -3.765625 2.8125 -3.765625 Z M 2.8125 -3.765625 "/></g></g></g><g fill="#c9bfe6" fill-opacity="1"><g transform="translate(77.995605, 10.887099)"><g><path d="M 3.6875 -0.234375 C 3.550781 -0.128906 3.382812 -0.0507812 3.1875 0 C 2.988281 0.0507812 2.78125 0.078125 2.5625 0.078125 C 2 0.078125 1.5625 -0.0664062 1.25 -0.359375 C 0.945312 -0.648438 0.796875 -1.070312 0.796875 -1.625 L 0.796875 -3.578125 L 0.078125 -3.578125 L 0.078125 -4.625 L 0.796875 -4.625 L 0.796875 -5.78125 L 2.171875 -5.78125 L 2.171875 -4.625 L 3.359375 -4.625 L 3.359375 -3.578125 L 2.171875 -3.578125 L 2.171875 -1.640625 C 2.171875 -1.441406 2.222656 -1.285156 2.328125 -1.171875 C 2.429688 -1.066406 2.578125 -1.015625 2.765625 -1.015625 C 2.984375 -1.015625 3.164062 -1.078125 3.3125 -1.203125 Z M 3.6875 -0.234375 "/></g></g></g><g fill="#c9bfe6" fill-opacity="1"><g transform="translate(81.823787, 10.887099)"><g><path d="M 2.21875 0.078125 C 1.832031 0.078125 1.453125 0.03125 1.078125 -0.0625 C 0.703125 -0.164062 0.398438 -0.289062 0.171875 -0.4375 L 0.640625 -1.421875 C 0.847656 -1.285156 1.097656 -1.175781 1.390625 -1.09375 C 1.691406 -1.007812 1.988281 -0.96875 2.28125 -0.96875 C 2.863281 -0.96875 3.15625 -1.113281 3.15625 -1.40625 C 3.15625 -1.53125 3.070312 -1.625 2.90625 -1.6875 C 2.75 -1.75 2.507812 -1.800781 2.1875 -1.84375 C 1.789062 -1.894531 1.46875 -1.957031 1.21875 -2.03125 C 0.96875 -2.113281 0.75 -2.25 0.5625 -2.4375 C 0.382812 -2.632812 0.296875 -2.910156 0.296875 -3.265625 C 0.296875 -3.566406 0.378906 -3.832031 0.546875 -4.0625 C 0.722656 -4.300781 0.972656 -4.484375 1.296875 -4.609375 C 1.628906 -4.734375 2.023438 -4.796875 2.484375 -4.796875 C 2.816406 -4.796875 3.144531 -4.757812 3.46875 -4.6875 C 3.800781 -4.613281 4.078125 -4.515625 4.296875 -4.390625 L 3.84375 -3.40625 C 3.425781 -3.644531 2.972656 -3.765625 2.484375 -3.765625 C 2.191406 -3.765625 1.96875 -3.722656 1.8125 -3.640625 C 1.664062 -3.554688 1.59375 -3.453125 1.59375 -3.328125 C 1.59375 -3.179688 1.671875 -3.078125 1.828125 -3.015625 C 1.992188 -2.953125 2.25 -2.894531 2.59375 -2.84375 C 2.976562 -2.78125 3.296875 -2.710938 3.546875 -2.640625 C 3.796875 -2.566406 4.007812 -2.429688 4.1875 -2.234375 C 4.363281 -2.046875 4.453125 -1.78125 4.453125 -1.4375 C 4.453125 -1.144531 4.363281 -0.882812 4.1875 -0.65625 C 4.019531 -0.425781 3.765625 -0.242188 3.421875 -0.109375 C 3.085938 0.015625 2.6875 0.078125 2.21875 0.078125 Z M 2.21875 0.078125 "/></g></g></g><g fill="#c9bfe6" fill-opacity="1"><g transform="translate(86.501006, 10.887099)"><g/></g></g><g fill="#c9bfe6" fill-opacity="1"><g transform="translate(32.383063, 22.500002)"><g><path d="M 2.15625 -5.015625 L 2.15625 -3.390625 L 5 -3.390625 L 5 -2.25 L 2.15625 -2.25 L 2.15625 0 L 0.734375 0 L 0.734375 -6.15625 L 5.390625 -6.15625 L 5.390625 -5.015625 Z M 2.15625 -5.015625 "/></g></g></g><g fill="#c9bfe6" fill-opacity="1"><g transform="translate(38.006523, 22.500002)"><g><path d="M 2.546875 -4.796875 C 3.273438 -4.796875 3.835938 -4.617188 4.234375 -4.265625 C 4.628906 -3.921875 4.828125 -3.398438 4.828125 -2.703125 L 4.828125 0 L 3.53125 0 L 3.53125 -0.59375 C 3.28125 -0.144531 2.800781 0.078125 2.09375 0.078125 C 1.726562 0.078125 1.410156 0.015625 1.140625 -0.109375 C 0.878906 -0.234375 0.675781 -0.40625 0.53125 -0.625 C 0.394531 -0.84375 0.328125 -1.085938 0.328125 -1.359375 C 0.328125 -1.796875 0.488281 -2.140625 0.8125 -2.390625 C 1.144531 -2.648438 1.660156 -2.78125 2.359375 -2.78125 L 3.453125 -2.78125 C 3.453125 -3.082031 3.359375 -3.3125 3.171875 -3.46875 C 2.992188 -3.632812 2.722656 -3.71875 2.359375 -3.71875 C 2.109375 -3.71875 1.859375 -3.675781 1.609375 -3.59375 C 1.367188 -3.507812 1.164062 -3.398438 1 -3.265625 L 0.5 -4.234375 C 0.757812 -4.410156 1.066406 -4.546875 1.421875 -4.640625 C 1.785156 -4.742188 2.160156 -4.796875 2.546875 -4.796875 Z M 2.4375 -0.859375 C 2.664062 -0.859375 2.867188 -0.910156 3.046875 -1.015625 C 3.234375 -1.117188 3.367188 -1.28125 3.453125 -1.5 L 3.453125 -1.984375 L 2.5 -1.984375 C 1.9375 -1.984375 1.65625 -1.796875 1.65625 -1.421875 C 1.65625 -1.242188 1.722656 -1.101562 1.859375 -1 C 2.003906 -0.90625 2.195312 -0.859375 2.4375 -0.859375 Z M 2.4375 -0.859375 "/></g></g></g><g fill="#c9bfe6" fill-opacity="1"><g transform="translate(43.436383, 22.500002)"><g><path d="M 3.515625 -4.796875 C 4.097656 -4.796875 4.566406 -4.617188 4.921875 -4.265625 C 5.285156 -3.921875 5.46875 -3.398438 5.46875 -2.703125 L 5.46875 0 L 4.09375 0 L 4.09375 -2.5 C 4.09375 -2.875 4.007812 -3.148438 3.84375 -3.328125 C 3.6875 -3.515625 3.453125 -3.609375 3.140625 -3.609375 C 2.796875 -3.609375 2.519531 -3.5 2.3125 -3.28125 C 2.101562 -3.070312 2 -2.757812 2 -2.34375 L 2 0 L 0.640625 0 L 0.640625 -4.734375 L 1.9375 -4.734375 L 1.9375 -4.171875 C 2.125 -4.378906 2.351562 -4.535156 2.625 -4.640625 C 2.894531 -4.742188 3.191406 -4.796875 3.515625 -4.796875 Z M 3.515625 -4.796875 "/></g></g></g><g fill="#c9bfe6" fill-opacity="1"><g transform="translate(49.517471, 22.500002)"><g><path d="M 3.6875 -0.234375 C 3.550781 -0.128906 3.382812 -0.0507812 3.1875 0 C 2.988281 0.0507812 2.78125 0.078125 2.5625 0.078125 C 2 0.078125 1.5625 -0.0664062 1.25 -0.359375 C 0.945312 -0.648438 0.796875 -1.070312 0.796875 -1.625 L 0.796875 -3.578125 L 0.078125 -3.578125 L 0.078125 -4.625 L 0.796875 -4.625 L 0.796875 -5.78125 L 2.171875 -5.78125 L 2.171875 -4.625 L 3.359375 -4.625 L 3.359375 -3.578125 L 2.171875 -3.578125 L 2.171875 -1.640625 C 2.171875 -1.441406 2.222656 -1.285156 2.328125 -1.171875 C 2.429688 -1.066406 2.578125 -1.015625 2.765625 -1.015625 C 2.984375 -1.015625 3.164062 -1.078125 3.3125 -1.203125 Z M 3.6875 -0.234375 "/></g></g></g><g fill="#c9bfe6" fill-opacity="1"><g transform="translate(53.345652, 22.500002)"><g><path d="M 2.546875 -4.796875 C 3.273438 -4.796875 3.835938 -4.617188 4.234375 -4.265625 C 4.628906 -3.921875 4.828125 -3.398438 4.828125 -2.703125 L 4.828125 0 L 3.53125 0 L 3.53125 -0.59375 C 3.28125 -0.144531 2.800781 0.078125 2.09375 0.078125 C 1.726562 0.078125 1.410156 0.015625 1.140625 -0.109375 C 0.878906 -0.234375 0.675781 -0.40625 0.53125 -0.625 C 0.394531 -0.84375 0.328125 -1.085938 0.328125 -1.359375 C 0.328125 -1.796875 0.488281 -2.140625 0.8125 -2.390625 C 1.144531 -2.648438 1.660156 -2.78125 2.359375 -2.78125 L 3.453125 -2.78125 C 3.453125 -3.082031 3.359375 -3.3125 3.171875 -3.46875 C 2.992188 -3.632812 2.722656 -3.71875 2.359375 -3.71875 C 2.109375 -3.71875 1.859375 -3.675781 1.609375 -3.59375 C 1.367188 -3.507812 1.164062 -3.398438 1 -3.265625 L 0.5 -4.234375 C 0.757812 -4.410156 1.066406 -4.546875 1.421875 -4.640625 C 1.785156 -4.742188 2.160156 -4.796875 2.546875 -4.796875 Z M 2.4375 -0.859375 C 2.664062 -0.859375 2.867188 -0.910156 3.046875 -1.015625 C 3.234375 -1.117188 3.367188 -1.28125 3.453125 -1.5 L 3.453125 -1.984375 L 2.5 -1.984375 C 1.9375 -1.984375 1.65625 -1.796875 1.65625 -1.421875 C 1.65625 -1.242188 1.722656 -1.101562 1.859375 -1 C 2.003906 -0.90625 2.195312 -0.859375 2.4375 -0.859375 Z M 2.4375 -0.859375 "/></g></g></g><g fill="#c9bfe6" fill-opacity="1"><g transform="translate(58.775512, 22.500002)"><g><path d="M 2.21875 0.078125 C 1.832031 0.078125 1.453125 0.03125 1.078125 -0.0625 C 0.703125 -0.164062 0.398438 -0.289062 0.171875 -0.4375 L 0.640625 -1.421875 C 0.847656 -1.285156 1.097656 -1.175781 1.390625 -1.09375 C 1.691406 -1.007812 1.988281 -0.96875 2.28125 -0.96875 C 2.863281 -0.96875 3.15625 -1.113281 3.15625 -1.40625 C 3.15625 -1.53125 3.070312 -1.625 2.90625 -1.6875 C 2.75 -1.75 2.507812 -1.800781 2.1875 -1.84375 C 1.789062 -1.894531 1.46875 -1.957031 1.21875 -2.03125 C 0.96875 -2.113281 0.75 -2.25 0.5625 -2.4375 C 0.382812 -2.632812 0.296875 -2.910156 0.296875 -3.265625 C 0.296875 -3.566406 0.378906 -3.832031 0.546875 -4.0625 C 0.722656 -4.300781 0.972656 -4.484375 1.296875 -4.609375 C 1.628906 -4.734375 2.023438 -4.796875 2.484375 -4.796875 C 2.816406 -4.796875 3.144531 -4.757812 3.46875 -4.6875 C 3.800781 -4.613281 4.078125 -4.515625 4.296875 -4.390625 L 3.84375 -3.40625 C 3.425781 -3.644531 2.972656 -3.765625 2.484375 -3.765625 C 2.191406 -3.765625 1.96875 -3.722656 1.8125 -3.640625 C 1.664062 -3.554688 1.59375 -3.453125 1.59375 -3.328125 C 1.59375 -3.179688 1.671875 -3.078125 1.828125 -3.015625 C 1.992188 -2.953125 2.25 -2.894531 2.59375 -2.84375 C 2.976562 -2.78125 3.296875 -2.710938 3.546875 -2.640625 C 3.796875 -2.566406 4.007812 -2.429688 4.1875 -2.234375 C 4.363281 -2.046875 4.453125 -1.78125 4.453125 -1.4375 C 4.453125 -1.144531 4.363281 -0.882812 4.1875 -0.65625 C 4.019531 -0.425781 3.765625 -0.242188 3.421875 -0.109375 C 3.085938 0.015625 2.6875 0.078125 2.21875 0.078125 Z M 2.21875 0.078125 "/></g></g></g><g fill="#c9bfe6" fill-opacity="1"><g transform="translate(63.448533, 22.500002)"><g><path d="M 5.328125 -4.734375 L 3.1875 0.296875 C 2.976562 0.835938 2.710938 1.21875 2.390625 1.4375 C 2.066406 1.664062 1.679688 1.78125 1.234375 1.78125 C 0.984375 1.78125 0.738281 1.738281 0.5 1.65625 C 0.257812 1.582031 0.0625 1.476562 -0.09375 1.34375 L 0.40625 0.375 C 0.519531 0.46875 0.644531 0.539062 0.78125 0.59375 C 0.914062 0.644531 1.050781 0.671875 1.1875 0.671875 C 1.375 0.671875 1.523438 0.625 1.640625 0.53125 C 1.765625 0.4375 1.875 0.285156 1.96875 0.078125 L 1.984375 0.03125 L -0.078125 -4.734375 L 1.34375 -4.734375 L 2.671875 -1.515625 L 4.015625 -4.734375 Z M 5.328125 -4.734375 "/></g></g></g></svg>