<svg xmlns="http://www.w3.org/2000/svg" xmlns:xlink="http://www.w3.org/1999/xlink" width="125" zoomAndPan="magnify"
     viewBox="0 0 112.5 37.5" height="40" preserveAspectRatio="xMidYMid meet" version="1.0">
    <defs>
        <g/>
    </defs>
    <g fill="#c9bfe6" fill-opacity="1">
        <g transform="translate(36.545923, 15.166429)">
            <g>
                <path d="M 2.296875 -5.34375 L 2.296875 -3.609375 L 5.328125 -3.609375 L 5.328125 -2.390625 L 2.296875 -2.390625 L 2.296875 0 L 0.78125 0 L 0.78125 -6.5625 L 5.734375 -6.5625 L 5.734375 -5.34375 Z M 2.296875 -5.34375 "/>
            </g>
        </g>
    </g>
    <g fill="#c9bfe6" fill-opacity="1">
        <g transform="translate(42.529521, 15.166429)">
            <g>
                <path d="M 2.703125 -5.125 C 3.484375 -5.125 4.082031 -4.9375 4.5 -4.5625 C 4.925781 -4.1875 5.140625 -3.625 5.140625 -2.875 L 5.140625 0 L 3.765625 0 L 3.765625 -0.625 C 3.492188 -0.15625 2.984375 0.078125 2.234375 0.078125 C 1.847656 0.078125 1.507812 0.015625 1.21875 -0.109375 C 0.9375 -0.242188 0.71875 -0.425781 0.5625 -0.65625 C 0.414062 -0.894531 0.34375 -1.160156 0.34375 -1.453125 C 0.34375 -1.921875 0.519531 -2.289062 0.875 -2.5625 C 1.226562 -2.832031 1.773438 -2.96875 2.515625 -2.96875 L 3.671875 -2.96875 C 3.671875 -3.28125 3.570312 -3.519531 3.375 -3.6875 C 3.1875 -3.863281 2.898438 -3.953125 2.515625 -3.953125 C 2.242188 -3.953125 1.976562 -3.910156 1.71875 -3.828125 C 1.457031 -3.742188 1.238281 -3.628906 1.0625 -3.484375 L 0.53125 -4.515625 C 0.8125 -4.703125 1.140625 -4.847656 1.515625 -4.953125 C 1.898438 -5.066406 2.296875 -5.125 2.703125 -5.125 Z M 2.59375 -0.90625 C 2.84375 -0.90625 3.0625 -0.960938 3.25 -1.078125 C 3.445312 -1.191406 3.585938 -1.363281 3.671875 -1.59375 L 3.671875 -2.109375 L 2.671875 -2.109375 C 2.066406 -2.109375 1.765625 -1.910156 1.765625 -1.515625 C 1.765625 -1.328125 1.835938 -1.175781 1.984375 -1.0625 C 2.140625 -0.957031 2.34375 -0.90625 2.59375 -0.90625 Z M 2.59375 -0.90625 "/>
            </g>
        </g>
    </g>
    <g fill="#c9bfe6" fill-opacity="1">
        <g transform="translate(48.307112, 15.166429)">
            <g>
                <path d="M 0.671875 -5.046875 L 2.140625 -5.046875 L 2.140625 0 L 0.671875 0 Z M 1.40625 -5.75 C 1.132812 -5.75 0.914062 -5.828125 0.75 -5.984375 C 0.582031 -6.140625 0.5 -6.332031 0.5 -6.5625 C 0.5 -6.789062 0.582031 -6.984375 0.75 -7.140625 C 0.914062 -7.296875 1.132812 -7.375 1.40625 -7.375 C 1.675781 -7.375 1.894531 -7.296875 2.0625 -7.140625 C 2.226562 -6.992188 2.3125 -6.8125 2.3125 -6.59375 C 2.3125 -6.34375 2.226562 -6.140625 2.0625 -5.984375 C 1.894531 -5.828125 1.675781 -5.75 1.40625 -5.75 Z M 1.40625 -5.75 "/>
            </g>
        </g>
    </g>
    <g fill="#c9bfe6" fill-opacity="1">
        <g transform="translate(51.125684, 15.166429)">
            <g>
                <path d="M 3.921875 -0.25 C 3.785156 -0.132812 3.609375 -0.0507812 3.390625 0 C 3.179688 0.0507812 2.960938 0.078125 2.734375 0.078125 C 2.140625 0.078125 1.675781 -0.0703125 1.34375 -0.375 C 1.019531 -0.6875 0.859375 -1.140625 0.859375 -1.734375 L 0.859375 -3.8125 L 0.078125 -3.8125 L 0.078125 -4.9375 L 0.859375 -4.9375 L 0.859375 -6.15625 L 2.3125 -6.15625 L 2.3125 -4.9375 L 3.578125 -4.9375 L 3.578125 -3.8125 L 2.3125 -3.8125 L 2.3125 -1.75 C 2.3125 -1.539062 2.363281 -1.378906 2.46875 -1.265625 C 2.582031 -1.148438 2.738281 -1.09375 2.9375 -1.09375 C 3.175781 -1.09375 3.375 -1.15625 3.53125 -1.28125 Z M 3.921875 -0.25 "/>
            </g>
        </g>
    </g>
    <g fill="#c9bfe6" fill-opacity="1">
        <g transform="translate(55.19903, 15.166429)">
            <g>
                <path d="M 3.734375 -5.125 C 4.359375 -5.125 4.863281 -4.9375 5.25 -4.5625 C 5.632812 -4.1875 5.828125 -3.628906 5.828125 -2.890625 L 5.828125 0 L 4.375 0 L 4.375 -2.65625 C 4.375 -3.0625 4.285156 -3.363281 4.109375 -3.5625 C 3.929688 -3.757812 3.675781 -3.859375 3.34375 -3.859375 C 2.976562 -3.859375 2.6875 -3.742188 2.46875 -3.515625 C 2.25 -3.285156 2.140625 -2.945312 2.140625 -2.5 L 2.140625 0 L 0.671875 0 L 0.671875 -6.953125 L 2.140625 -6.953125 L 2.140625 -4.515625 C 2.328125 -4.710938 2.554688 -4.863281 2.828125 -4.96875 C 3.109375 -5.070312 3.410156 -5.125 3.734375 -5.125 Z M 3.734375 -5.125 "/>
            </g>
        </g>
    </g>
    <g fill="#c9bfe6" fill-opacity="1">
        <g transform="translate(61.669563, 15.166429)">
            <g/>
        </g>
    </g>
    <g fill="#c9bfe6" fill-opacity="1">
        <g transform="translate(64.319581, 15.166429)">
            <g>
                <path d="M 6.75 0 L 6.734375 -3.9375 L 4.8125 -0.6875 L 4.125 -0.6875 L 2.203125 -3.859375 L 2.203125 0 L 0.78125 0 L 0.78125 -6.5625 L 2.03125 -6.5625 L 4.484375 -2.484375 L 6.90625 -6.5625 L 8.15625 -6.5625 L 8.171875 0 Z M 6.75 0 "/>
            </g>
        </g>
    </g>
    <g fill="#c9bfe6" fill-opacity="1">
        <g transform="translate(73.262209, 15.166429)">
            <g>
                <path d="M 5.609375 -2.5 C 5.609375 -2.476562 5.601562 -2.347656 5.59375 -2.109375 L 1.765625 -2.109375 C 1.835938 -1.796875 2 -1.546875 2.25 -1.359375 C 2.507812 -1.179688 2.832031 -1.09375 3.21875 -1.09375 C 3.476562 -1.09375 3.707031 -1.128906 3.90625 -1.203125 C 4.113281 -1.285156 4.304688 -1.410156 4.484375 -1.578125 L 5.265625 -0.734375 C 4.785156 -0.191406 4.085938 0.078125 3.171875 0.078125 C 2.609375 0.078125 2.109375 -0.03125 1.671875 -0.25 C 1.234375 -0.476562 0.894531 -0.785156 0.65625 -1.171875 C 0.414062 -1.566406 0.296875 -2.015625 0.296875 -2.515625 C 0.296875 -3.015625 0.410156 -3.460938 0.640625 -3.859375 C 0.878906 -4.253906 1.203125 -4.5625 1.609375 -4.78125 C 2.023438 -5.007812 2.484375 -5.125 2.984375 -5.125 C 3.484375 -5.125 3.929688 -5.015625 4.328125 -4.796875 C 4.734375 -4.585938 5.046875 -4.285156 5.265625 -3.890625 C 5.492188 -3.492188 5.609375 -3.03125 5.609375 -2.5 Z M 3 -4.015625 C 2.664062 -4.015625 2.382812 -3.921875 2.15625 -3.734375 C 1.9375 -3.546875 1.800781 -3.289062 1.75 -2.96875 L 4.234375 -2.96875 C 4.179688 -3.28125 4.039062 -3.53125 3.8125 -3.71875 C 3.59375 -3.914062 3.320312 -4.015625 3 -4.015625 Z M 3 -4.015625 "/>
            </g>
        </g>
    </g>
    <g fill="#c9bfe6" fill-opacity="1">
        <g transform="translate(79.170899, 15.166429)">
            <g>
                <path d="M 5.609375 -2.5 C 5.609375 -2.476562 5.601562 -2.347656 5.59375 -2.109375 L 1.765625 -2.109375 C 1.835938 -1.796875 2 -1.546875 2.25 -1.359375 C 2.507812 -1.179688 2.832031 -1.09375 3.21875 -1.09375 C 3.476562 -1.09375 3.707031 -1.128906 3.90625 -1.203125 C 4.113281 -1.285156 4.304688 -1.410156 4.484375 -1.578125 L 5.265625 -0.734375 C 4.785156 -0.191406 4.085938 0.078125 3.171875 0.078125 C 2.609375 0.078125 2.109375 -0.03125 1.671875 -0.25 C 1.234375 -0.476562 0.894531 -0.785156 0.65625 -1.171875 C 0.414062 -1.566406 0.296875 -2.015625 0.296875 -2.515625 C 0.296875 -3.015625 0.410156 -3.460938 0.640625 -3.859375 C 0.878906 -4.253906 1.203125 -4.5625 1.609375 -4.78125 C 2.023438 -5.007812 2.484375 -5.125 2.984375 -5.125 C 3.484375 -5.125 3.929688 -5.015625 4.328125 -4.796875 C 4.734375 -4.585938 5.046875 -4.285156 5.265625 -3.890625 C 5.492188 -3.492188 5.609375 -3.03125 5.609375 -2.5 Z M 3 -4.015625 C 2.664062 -4.015625 2.382812 -3.921875 2.15625 -3.734375 C 1.9375 -3.546875 1.800781 -3.289062 1.75 -2.96875 L 4.234375 -2.96875 C 4.179688 -3.28125 4.039062 -3.53125 3.8125 -3.71875 C 3.59375 -3.914062 3.320312 -4.015625 3 -4.015625 Z M 3 -4.015625 "/>
            </g>
        </g>
    </g>
    <g fill="#c9bfe6" fill-opacity="1">
        <g transform="translate(85.07959, 15.166429)">
            <g>
                <path d="M 3.921875 -0.25 C 3.785156 -0.132812 3.609375 -0.0507812 3.390625 0 C 3.179688 0.0507812 2.960938 0.078125 2.734375 0.078125 C 2.140625 0.078125 1.675781 -0.0703125 1.34375 -0.375 C 1.019531 -0.6875 0.859375 -1.140625 0.859375 -1.734375 L 0.859375 -3.8125 L 0.078125 -3.8125 L 0.078125 -4.9375 L 0.859375 -4.9375 L 0.859375 -6.15625 L 2.3125 -6.15625 L 2.3125 -4.9375 L 3.578125 -4.9375 L 3.578125 -3.8125 L 2.3125 -3.8125 L 2.3125 -1.75 C 2.3125 -1.539062 2.363281 -1.378906 2.46875 -1.265625 C 2.582031 -1.148438 2.738281 -1.09375 2.9375 -1.09375 C 3.175781 -1.09375 3.375 -1.15625 3.53125 -1.28125 Z M 3.921875 -0.25 "/>
            </g>
        </g>
    </g>
    <g fill="#c9bfe6" fill-opacity="1">
        <g transform="translate(89.152936, 15.166429)">
            <g>
                <path d="M 2.375 0.078125 C 1.957031 0.078125 1.546875 0.0234375 1.140625 -0.078125 C 0.742188 -0.179688 0.425781 -0.3125 0.1875 -0.46875 L 0.671875 -1.515625 C 0.898438 -1.367188 1.171875 -1.25 1.484375 -1.15625 C 1.804688 -1.070312 2.117188 -1.03125 2.421875 -1.03125 C 3.046875 -1.03125 3.359375 -1.179688 3.359375 -1.484375 C 3.359375 -1.628906 3.269531 -1.734375 3.09375 -1.796875 C 2.925781 -1.859375 2.671875 -1.910156 2.328125 -1.953125 C 1.910156 -2.015625 1.566406 -2.085938 1.296875 -2.171875 C 1.035156 -2.253906 0.804688 -2.398438 0.609375 -2.609375 C 0.410156 -2.816406 0.3125 -3.109375 0.3125 -3.484375 C 0.3125 -3.804688 0.398438 -4.085938 0.578125 -4.328125 C 0.765625 -4.578125 1.035156 -4.769531 1.390625 -4.90625 C 1.742188 -5.050781 2.160156 -5.125 2.640625 -5.125 C 2.992188 -5.125 3.347656 -5.082031 3.703125 -5 C 4.054688 -4.925781 4.347656 -4.816406 4.578125 -4.671875 L 4.09375 -3.640625 C 3.65625 -3.890625 3.171875 -4.015625 2.640625 -4.015625 C 2.328125 -4.015625 2.09375 -3.96875 1.9375 -3.875 C 1.78125 -3.789062 1.703125 -3.679688 1.703125 -3.546875 C 1.703125 -3.390625 1.785156 -3.28125 1.953125 -3.21875 C 2.128906 -3.15625 2.398438 -3.09375 2.765625 -3.03125 C 3.179688 -2.96875 3.519531 -2.894531 3.78125 -2.8125 C 4.039062 -2.738281 4.265625 -2.597656 4.453125 -2.390625 C 4.648438 -2.179688 4.75 -1.894531 4.75 -1.53125 C 4.75 -1.21875 4.65625 -0.9375 4.46875 -0.6875 C 4.28125 -0.445312 4.003906 -0.257812 3.640625 -0.125 C 3.285156 0.0078125 2.863281 0.078125 2.375 0.078125 Z M 2.375 0.078125 "/>
            </g>
        </g>
    </g>
    <g fill="#c9bfe6" fill-opacity="1">
        <g transform="translate(94.127615, 15.166429)">
            <g/>
        </g>
    </g>
    <g fill="#c9bfe6" fill-opacity="1">
        <g transform="translate(36.545923, 27.846497)">
            <g>
                <path d="M 2.296875 -5.34375 L 2.296875 -3.609375 L 5.328125 -3.609375 L 5.328125 -2.390625 L 2.296875 -2.390625 L 2.296875 0 L 0.78125 0 L 0.78125 -6.5625 L 5.734375 -6.5625 L 5.734375 -5.34375 Z M 2.296875 -5.34375 "/>
            </g>
        </g>
    </g>
    <g fill="#c9bfe6" fill-opacity="1">
        <g transform="translate(42.529521, 27.846497)">
            <g>
                <path d="M 2.703125 -5.125 C 3.484375 -5.125 4.082031 -4.9375 4.5 -4.5625 C 4.925781 -4.1875 5.140625 -3.625 5.140625 -2.875 L 5.140625 0 L 3.765625 0 L 3.765625 -0.625 C 3.492188 -0.15625 2.984375 0.078125 2.234375 0.078125 C 1.847656 0.078125 1.507812 0.015625 1.21875 -0.109375 C 0.9375 -0.242188 0.71875 -0.425781 0.5625 -0.65625 C 0.414062 -0.894531 0.34375 -1.160156 0.34375 -1.453125 C 0.34375 -1.921875 0.519531 -2.289062 0.875 -2.5625 C 1.226562 -2.832031 1.773438 -2.96875 2.515625 -2.96875 L 3.671875 -2.96875 C 3.671875 -3.28125 3.570312 -3.519531 3.375 -3.6875 C 3.1875 -3.863281 2.898438 -3.953125 2.515625 -3.953125 C 2.242188 -3.953125 1.976562 -3.910156 1.71875 -3.828125 C 1.457031 -3.742188 1.238281 -3.628906 1.0625 -3.484375 L 0.53125 -4.515625 C 0.8125 -4.703125 1.140625 -4.847656 1.515625 -4.953125 C 1.898438 -5.066406 2.296875 -5.125 2.703125 -5.125 Z M 2.59375 -0.90625 C 2.84375 -0.90625 3.0625 -0.960938 3.25 -1.078125 C 3.445312 -1.191406 3.585938 -1.363281 3.671875 -1.59375 L 3.671875 -2.109375 L 2.671875 -2.109375 C 2.066406 -2.109375 1.765625 -1.910156 1.765625 -1.515625 C 1.765625 -1.328125 1.835938 -1.175781 1.984375 -1.0625 C 2.140625 -0.957031 2.34375 -0.90625 2.59375 -0.90625 Z M 2.59375 -0.90625 "/>
            </g>
        </g>
    </g>
    <g fill="#c9bfe6" fill-opacity="1">
        <g transform="translate(48.307112, 27.846497)">
            <g>
                <path d="M 7.140625 -5.125 C 7.765625 -5.125 8.265625 -4.9375 8.640625 -4.5625 C 9.015625 -4.1875 9.203125 -3.628906 9.203125 -2.890625 L 9.203125 0 L 7.734375 0 L 7.734375 -2.65625 C 7.734375 -3.0625 7.648438 -3.363281 7.484375 -3.5625 C 7.316406 -3.757812 7.082031 -3.859375 6.78125 -3.859375 C 6.4375 -3.859375 6.160156 -3.742188 5.953125 -3.515625 C 5.753906 -3.296875 5.65625 -2.96875 5.65625 -2.53125 L 5.65625 0 L 4.203125 0 L 4.203125 -2.65625 C 4.203125 -3.457031 3.882812 -3.859375 3.25 -3.859375 C 2.90625 -3.859375 2.632812 -3.742188 2.4375 -3.515625 C 2.238281 -3.296875 2.140625 -2.96875 2.140625 -2.53125 L 2.140625 0 L 0.671875 0 L 0.671875 -5.046875 L 2.078125 -5.046875 L 2.078125 -4.46875 C 2.265625 -4.675781 2.492188 -4.835938 2.765625 -4.953125 C 3.035156 -5.066406 3.332031 -5.125 3.65625 -5.125 C 4.007812 -5.125 4.328125 -5.050781 4.609375 -4.90625 C 4.898438 -4.769531 5.132812 -4.566406 5.3125 -4.296875 C 5.519531 -4.554688 5.78125 -4.757812 6.09375 -4.90625 C 6.414062 -5.050781 6.765625 -5.125 7.140625 -5.125 Z M 7.140625 -5.125 "/>
            </g>
        </g>
    </g>
    <g fill="#c9bfe6" fill-opacity="1">
        <g transform="translate(58.129964, 27.846497)">
            <g>
                <path d="M 0.671875 -5.046875 L 2.140625 -5.046875 L 2.140625 0 L 0.671875 0 Z M 1.40625 -5.75 C 1.132812 -5.75 0.914062 -5.828125 0.75 -5.984375 C 0.582031 -6.140625 0.5 -6.332031 0.5 -6.5625 C 0.5 -6.789062 0.582031 -6.984375 0.75 -7.140625 C 0.914062 -7.296875 1.132812 -7.375 1.40625 -7.375 C 1.675781 -7.375 1.894531 -7.296875 2.0625 -7.140625 C 2.226562 -6.992188 2.3125 -6.8125 2.3125 -6.59375 C 2.3125 -6.34375 2.226562 -6.140625 2.0625 -5.984375 C 1.894531 -5.828125 1.675781 -5.75 1.40625 -5.75 Z M 1.40625 -5.75 "/>
            </g>
        </g>
    </g>
    <g fill="#c9bfe6" fill-opacity="1">
        <g transform="translate(60.948535, 27.846497)">
            <g>
                <path d="M 0.671875 -6.953125 L 2.140625 -6.953125 L 2.140625 0 L 0.671875 0 Z M 0.671875 -6.953125 "/>
            </g>
        </g>
    </g>
    <g fill="#c9bfe6" fill-opacity="1">
        <g transform="translate(63.767107, 27.846497)">
            <g>
                <path d="M 5.6875 -5.046875 L 3.40625 0.3125 C 3.175781 0.894531 2.890625 1.300781 2.546875 1.53125 C 2.203125 1.769531 1.789062 1.890625 1.3125 1.890625 C 1.050781 1.890625 0.789062 1.847656 0.53125 1.765625 C 0.28125 1.691406 0.0703125 1.582031 -0.09375 1.4375 L 0.4375 0.390625 C 0.550781 0.492188 0.679688 0.570312 0.828125 0.625 C 0.972656 0.6875 1.117188 0.71875 1.265625 0.71875 C 1.460938 0.71875 1.625 0.664062 1.75 0.5625 C 1.875 0.46875 1.988281 0.304688 2.09375 0.078125 L 2.109375 0.03125 L -0.078125 -5.046875 L 1.4375 -5.046875 L 2.84375 -1.625 L 4.28125 -5.046875 Z M 5.6875 -5.046875 "/>
            </g>
        </g>
    </g>
    <path stroke-linecap="butt" transform="matrix(0.00148026, 0, 0, 0.00148026, 0.493421, 0.000000986842)"
          fill-opacity="1" fill="#c9bfe6" fill-rule="evenodd" stroke-linejoin="miter"
          d="M 12475.833654 7821.666201 C 13111.805892 7821.666201 13724.02813 7916.666203 14299.305923 8093.471763 C 14338.889257 6254.166161 15766.528182 4808.055012 17671.806009 4779.027234 C 19724.861617 4747.360566 21556.250553 6378.193941 21759.445003 8423.332883 C 21962.639453 10465.832935 20466.389414 12149.44409 18418.611584 12186.388535 C 18600.694922 12774.860772 18700.972702 13397.638566 18700.972702 14044.16636 C 18700.972702 17482.638671 15914.305964 20266.66652 12475.833654 20266.66652 C 9040.000232 20266.66652 6253.333494 17482.638671 6253.333494 14044.16636 C 6253.333494 13410.833011 6348.333496 12798.610773 6525.139056 12223.33298 C 4688.472343 12181.110757 3242.361194 10753.471832 3210.694527 8850.832894 C 3179.027859 6795.138397 4809.861235 4963.749461 6857.639065 4760.555011 C 8897.500228 4557.360561 10581.111383 6053.6106 10618.055828 8104.027319 C 11206.528065 7919.305092 11829.305859 7821.666201 12475.833654 7821.666201 Z M 12475.833654 7821.666201 "
          stroke="#c9bfe6" stroke-width="20" stroke-opacity="1" stroke-miterlimit="22.926001"/>
</svg>
