<?xml version="1.0" encoding="UTF-8"?>
<!DOCTYPE svg PUBLIC "-//W3C//DTD SVG 1.1//EN" "http://www.w3.org/Graphics/SVG/1.1/DTD/svg11.dtd">
<!-- Creator: CorelDRAW 2021 (64-Bit) -->
<svg xmlns="http://www.w3.org/2000/svg" xml:space="preserve" width="250mm" height="250mm" version="1.1" style="shape-rendering:geometricPrecision; text-rendering:geometricPrecision; image-rendering:optimizeQuality; fill-rule:evenodd; clip-rule:evenodd"
viewBox="0 0 25000 25000"
 xmlns:xlink="http://www.w3.org/1999/xlink"
 xmlns:xodm="http://www.corel.com/coreldraw/odm/2003">
 <defs>
  <style type="text/css">
   <![CDATA[
    .str0 {stroke:#c9bfe6;stroke-width:20;stroke-miterlimit:22.9256}
    .fil0 {fill:#c9bfe6}
   ]]>
  </style>
 </defs>
 <g id="Katman_x0020_1">
  <metadata id="CorelCorpID_0Corel-Layer"/>
  <path class="fil0 str0" d="M12476.86 7821.7c634.13,0 1245.99,95.14 1822.4,271.41 40.17,-1837.81 1468.22,-3284.12 3371.28,-3314.21 2055.6,-32.52 3886.76,1599.56 4090.01,3645.37 202.89,2042.05 -1292.92,3724.25 -3342.73,3762.74 183.27,586.7 282.13,1210.68 282.13,1857.78 0,3436.94 -2786.15,6223.09 -6223.09,6223.09 -3436.94,0 -6223.09,-2786.15 -6223.09,-6223.09 0,-634.13 95.14,-1245.99 271.41,-1822.4 -1837.81,-40.17 -3284.12,-1468.22 -3314.21,-3371.28 -32.52,-2055.6 1599.56,-3886.76 3645.37,-4090.01 2042.05,-202.89 3724.25,1292.92 3762.74,3342.73 586.7,-183.27 1210.68,-282.13 1857.78,-282.13z"/>
 </g>
</svg>
