<?xml version="1.0" encoding="UTF-8"?>
<!DOCTYPE svg PUBLIC "-//W3C//DTD SVG 1.1//EN" "http://www.w3.org/Graphics/SVG/1.1/DTD/svg11.dtd">
<!-- Creator: CorelDRAW 2021 (64-Bit) -->
<svg xmlns="http://www.w3.org/2000/svg" xml:space="preserve" width="250mm" height="250mm" version="1.1" style="shape-rendering:geometricPrecision; text-rendering:geometricPrecision; image-rendering:optimizeQuality; fill-rule:evenodd; clip-rule:evenodd"
viewBox="0 0 25000 25000"
 xmlns:xlink="http://www.w3.org/1999/xlink"
 xmlns:xodm="http://www.corel.com/coreldraw/odm/2003">
 <defs>
  <style type="text/css">
   <![CDATA[
    .fil0 {fill:#c9bfe6;fill-rule:nonzero}
   ]]>
  </style>
 </defs>
 <g id="Katman_x0020_1">
  <metadata id="CorelCorpID_0Corel-Layer"/>
  <path class="fil0" d="M12476.86 7539.48c326.11,0 647.97,24.41 963.72,71.43 202.67,30.18 403.48,70.18 601.92,119.49 98.35,-855.47 479.19,-1615.28 1057,-2183.31 648.92,-637.94 1544.98,-1033.16 2566.63,-1049.31 1101.59,-17.42 2141.19,409.52 2931.46,1113.87 790.58,704.64 1334.07,1688.69 1442.98,2785.06 10.58,106.54 16.84,214.46 18.88,323.42 18.31,975.95 -324.48,1859.8 -914.97,2524.28 -582.68,655.69 -1406.03,1096.76 -2360.96,1200.98 51.21,202.14 92.89,407.61 124.51,615.88 48.82,321.43 74.14,649.89 74.14,983.52 0,1796.37 -728.15,3422.71 -1905.37,4599.94 -1177.23,1177.22 -2803.57,1905.37 -4599.94,1905.37 -1796.37,0 -3422.71,-728.15 -4599.94,-1905.37 -1177.22,-1177.23 -1905.37,-2803.57 -1905.37,-4599.94 0,-326.11 24.41,-647.97 71.43,-963.72 30.18,-202.67 70.18,-403.48 119.49,-601.92 -855.47,-98.35 -1615.28,-479.2 -2183.31,-1057 -637.94,-648.92 -1033.16,-1544.98 -1049.31,-2566.63 -17.42,-1101.59 409.52,-2141.19 1113.87,-2931.46 704.64,-790.58 1688.69,-1334.07 2785.06,-1442.98 106.54,-10.58 214.46,-16.84 323.42,-18.88 975.95,-18.31 1859.8,324.48 2524.28,914.97 655.69,582.68 1096.76,1406.03 1200.98,2360.96 202.14,-51.21 407.61,-92.89 615.88,-124.51 321.43,-48.82 649.89,-74.14 983.52,-74.14zm882.14 629.25c-286.49,-42.67 -581.03,-64.81 -882.14,-64.81 -306.56,0 -607.02,23.07 -899.74,67.52 -300.41,45.61 -592.42,113.34 -874.26,201.38l-357.84 111.79 -7.06 -376.37c-1.71,-91.38 -7.28,-183.72 -16.52,-276.78 -81.86,-823.93 -457.67,-1533.66 -1019.78,-2033.17 -562.07,-499.48 -1311.5,-789.41 -2140.64,-773.85 -89.23,1.67 -181.65,7.2 -277.12,16.68 -949.42,94.32 -1804.36,568.09 -2419.06,1257.76 -614.99,690.01 -987.84,1593.81 -972.75,2547.82 13.76,870.3 348.35,1631.49 888.35,2180.79 545.8,555.2 1302.37,895.25 2150.25,913.78l371.91 8.13 -108.43 354.57c-84.14,275.17 -149.18,561.89 -193.37,858.68 -42.67,286.49 -64.81,581.03 -64.81,882.14 0,1640.56 664.95,3125.79 1740.01,4200.86 1075.07,1075.06 2560.3,1740.01 4200.86,1740.01 1640.56,0 3125.79,-664.95 4200.86,-1740.01 1075.06,-1075.07 1740.01,-2560.3 1740.01,-4200.86 0,-306.56 -23.07,-607.02 -67.52,-899.74 -45.61,-300.41 -113.34,-592.42 -201.38,-874.26l-111.79 -357.84 376.37 -7.06c91.38,-1.71 183.72,-7.28 276.78,-16.52 823.93,-81.86 1533.66,-457.67 2033.17,-1019.78 499.48,-562.07 789.41,-1311.5 773.85,-2140.64 -1.67,-89.23 -7.2,-181.65 -16.68,-277.12 -94.32,-949.42 -568.09,-1804.36 -1257.76,-2419.06 -690.01,-614.99 -1593.81,-987.84 -2547.82,-972.75 -870.3,13.76 -1631.49,348.35 -2180.79,888.35 -555.2,545.8 -895.25,1302.37 -913.78,2150.25l-8.13 371.91 -354.57 -108.43c-275.17,-84.14 -561.89,-149.18 -858.68,-193.37z"/>
 </g>
</svg>
